<!-- Figma: White Astronaut primary + Sea Buckthorn accent -->
<svg xmlns="http://www.w3.org/2000/svg" viewBox="0 0 32 32" fill="none">
  <rect width="32" height="32" rx="7" fill="#2C2F7E"/>
  <path d="M22.5 7.5c4.2.8 6.8 4.4 6.5 8.7-.4 5.5-4.2 10-9.2 11.6-5.8 1.8-12-1-14.5-6.1C2.3 17.2 3.3 10.4 7.7 7c2.9-1.8 6.8-1.6 9.7 1.3 1.4 1.4 2.9 2.6 4.5 3.6" stroke="#fff" stroke-width="1.7" stroke-linecap="round" stroke-linejoin="round"/>
  <path d="M19 12.5c2.5.3 4.2 2.5 4 5-.3 3.4-3.1 5.8-6.5 6-2.9.1-5.5-1.6-6.3-4.4-.5-1.8-.1-3.7 1.2-5.1 1.4-1.6 3.9-2.3 6-1.5" stroke="#fff" stroke-width="1.45" stroke-linecap="round" stroke-linejoin="round"/>
  <circle cx="20.8" cy="14.2" r="1.6" fill="#F4A03B"/>
</svg>
